<svg xmlns="http://www.w3.org/2000/svg" width="1180" height="620" viewBox="0 0 1180 620">
<rect width="100%" height="100%" fill="#ffffff"/>
<style>text{font-family:DejaVu Sans,Arial,sans-serif;fill:#172033}.title{font-size:24px;font-weight:700}.axis{font-size:13px}.value{font-size:11px}.legend{font-size:12px}</style>
<text x="590.0" y="38" text-anchor="middle" class="title">Medyan throughput</text>
<line x1="105" y1="475.00" x2="1145" y2="475.00" stroke="#d7dde8" stroke-width="1"/>
<text x="95" y="479.00" text-anchor="end" class="axis">0.0</text>
<line x1="105" y1="395.00" x2="1145" y2="395.00" stroke="#d7dde8" stroke-width="1"/>
<text x="95" y="399.00" text-anchor="end" class="axis">399.6</text>
<line x1="105" y1="315.00" x2="1145" y2="315.00" stroke="#d7dde8" stroke-width="1"/>
<text x="95" y="319.00" text-anchor="end" class="axis">799.2</text>
<line x1="105" y1="235.00" x2="1145" y2="235.00" stroke="#d7dde8" stroke-width="1"/>
<text x="95" y="239.00" text-anchor="end" class="axis">1,198.8</text>
<line x1="105" y1="155.00" x2="1145" y2="155.00" stroke="#d7dde8" stroke-width="1"/>
<text x="95" y="159.00" text-anchor="end" class="axis">1,598.4</text>
<line x1="105" y1="75.00" x2="1145" y2="75.00" stroke="#d7dde8" stroke-width="1"/>
<text x="95" y="79.00" text-anchor="end" class="axis">1,998.0</text>
<rect x="143.13" y="396.04" width="30.80" height="78.96" fill="#2563eb" rx="2"/>
<text x="158.53" y="391.04" text-anchor="middle" class="value">394.4</text>
<rect x="176.93" y="296.73" width="30.80" height="178.27" fill="#059669" rx="2"/>
<text x="192.33" y="291.73" text-anchor="middle" class="value">890.5</text>
<rect x="210.73" y="299.92" width="30.80" height="175.08" fill="#7c3aed" rx="2"/>
<text x="226.13" y="294.92" text-anchor="middle" class="value">874.5</text>
<rect x="244.53" y="296.54" width="30.80" height="178.46" fill="#ea580c" rx="2"/>
<text x="259.93" y="291.54" text-anchor="middle" class="value">891.4</text>
<rect x="278.33" y="287.77" width="30.80" height="187.23" fill="#0891b2" rx="2"/>
<text x="293.73" y="282.77" text-anchor="middle" class="value">935.3</text>
<rect x="312.13" y="274.83" width="30.80" height="200.17" fill="#65a30d" rx="2"/>
<text x="327.53" y="269.83" text-anchor="middle" class="value">999.9</text>
<rect x="345.93" y="434.24" width="30.80" height="40.76" fill="#dc2626" rx="2"/>
<text x="361.33" y="429.24" text-anchor="middle" class="value">203.6</text>
<rect x="379.73" y="232.33" width="30.80" height="242.67" fill="#db2777" rx="2"/>
<text x="395.13" y="227.33" text-anchor="middle" class="value">1,212.2</text>
<text x="278.33" y="503" text-anchor="middle" class="axis">100 kayıt</text>
<rect x="489.80" y="390.91" width="30.80" height="84.09" fill="#2563eb" rx="2"/>
<text x="505.20" y="385.91" text-anchor="middle" class="value">420.0</text>
<rect x="523.60" y="243.98" width="30.80" height="231.02" fill="#059669" rx="2"/>
<text x="539.00" y="238.98" text-anchor="middle" class="value">1,153.9</text>
<rect x="557.40" y="243.86" width="30.80" height="231.14" fill="#7c3aed" rx="2"/>
<text x="572.80" y="238.86" text-anchor="middle" class="value">1,154.6</text>
<rect x="591.20" y="215.97" width="30.80" height="259.03" fill="#ea580c" rx="2"/>
<text x="606.60" y="210.97" text-anchor="middle" class="value">1,293.9</text>
<rect x="625.00" y="222.31" width="30.80" height="252.69" fill="#0891b2" rx="2"/>
<text x="640.40" y="217.31" text-anchor="middle" class="value">1,262.2</text>
<rect x="658.80" y="209.55" width="30.80" height="265.45" fill="#65a30d" rx="2"/>
<text x="674.20" y="204.55" text-anchor="middle" class="value">1,326.0</text>
<rect x="692.60" y="413.12" width="30.80" height="61.88" fill="#dc2626" rx="2"/>
<text x="708.00" y="408.12" text-anchor="middle" class="value">309.1</text>
<rect x="726.40" y="134.67" width="30.80" height="340.33" fill="#db2777" rx="2"/>
<text x="741.80" y="129.67" text-anchor="middle" class="value">1,700.0</text>
<text x="625.00" y="503" text-anchor="middle" class="axis">1,000 kayıt</text>
<rect x="836.47" y="383.36" width="30.80" height="91.64" fill="#2563eb" rx="2"/>
<text x="851.87" y="378.36" text-anchor="middle" class="value">457.7</text>
<rect x="870.27" y="243.88" width="30.80" height="231.12" fill="#059669" rx="2"/>
<text x="885.67" y="238.88" text-anchor="middle" class="value">1,154.5</text>
<rect x="904.07" y="242.47" width="30.80" height="232.53" fill="#7c3aed" rx="2"/>
<text x="919.47" y="237.47" text-anchor="middle" class="value">1,161.5</text>
<rect x="937.87" y="209.89" width="30.80" height="265.11" fill="#ea580c" rx="2"/>
<text x="953.27" y="204.89" text-anchor="middle" class="value">1,324.3</text>
<rect x="971.67" y="220.72" width="30.80" height="254.28" fill="#0891b2" rx="2"/>
<text x="987.07" y="215.72" text-anchor="middle" class="value">1,270.2</text>
<rect x="1005.47" y="194.40" width="30.80" height="280.60" fill="#65a30d" rx="2"/>
<text x="1020.87" y="189.40" text-anchor="middle" class="value">1,401.6</text>
<rect x="1039.27" y="431.10" width="30.80" height="43.90" fill="#dc2626" rx="2"/>
<text x="1054.67" y="426.10" text-anchor="middle" class="value">219.3</text>
<rect x="1073.07" y="117.86" width="30.80" height="357.14" fill="#db2777" rx="2"/>
<text x="1088.47" y="112.86" text-anchor="middle" class="value">1,784.0</text>
<text x="971.67" y="503" text-anchor="middle" class="axis">5,000 kayıt</text>
<text transform="translate(24 275.0) rotate(-90)" text-anchor="middle" class="axis">Kayıt / saniye</text>
<rect x="105.00" y="528" width="13" height="13" fill="#2563eb" rx="2"/>
<text x="123.00" y="539" class="legend">Satır başına commit</text>
<rect x="365.00" y="528" width="13" height="13" fill="#059669" rx="2"/>
<text x="383.00" y="539" class="legend">Satır ekle, tek transaction</text>
<rect x="625.00" y="528" width="13" height="13" fill="#7c3aed" rx="2"/>
<text x="643.00" y="539" class="legend">ORM add_all</text>
<rect x="885.00" y="528" width="13" height="13" fill="#ea580c" rx="2"/>
<text x="903.00" y="539" class="legend">Core executemany</text>
<rect x="105.00" y="552" width="13" height="13" fill="#0891b2" rx="2"/>
<text x="123.00" y="563" class="legend">Batch upsert (ON CONFLICT)</text>
<rect x="365.00" y="552" width="13" height="13" fill="#65a30d" rx="2"/>
<text x="383.00" y="563" class="legend">COPY</text>
<rect x="625.00" y="552" width="13" height="13" fill="#dc2626" rx="2"/>
<text x="643.00" y="563" class="legend">Repository save_passages</text>
<rect x="885.00" y="552" width="13" height="13" fill="#db2777" rx="2"/>
<text x="903.00" y="563" class="legend">pgvector executemany</text>
</svg>
